<?xml version="1.0" encoding="utf-8"?>
<!-- Generator: Adobe Illustrator 16.0.0, SVG Export Plug-In . SVG Version: 6.00 Build 0)  -->
<!DOCTYPE svg PUBLIC "-//W3C//DTD SVG 1.1//EN" "http://www.w3.org/Graphics/SVG/1.1/DTD/svg11.dtd">
<svg version="1.1" id="Layer_1" xmlns="http://www.w3.org/2000/svg" xmlns:xlink="http://www.w3.org/1999/xlink" x="0px" y="0px"
	 width="640px" height="480px" viewBox="0 0 640 480" enable-background="new 0 0 640 480" xml:space="preserve">
<g>
	<path fill="#828282" d="M321,433.5c-1.735,0-3.469-0.663-4.793-1.984L132.33,247.638c-2.646-2.648-2.646-6.939,0-9.587
		L316.207,54.174c2.646-2.646,6.939-2.647,9.586,0L509.67,238.05c2.646,2.648,2.646,6.939,0,9.587L325.793,431.515
		C324.47,432.837,322.734,433.5,321,433.5z M146.711,242.844L321,417.134l174.29-174.29L321,68.554L146.711,242.844z"/>
	<path fill="#828282" d="M458.907,196.875l-45.971-45.969l-45.967-45.969L321,58.969l-45.969,45.969l-45.97,45.969l-45.969,45.969
		l-45.97,45.968l45.97,45.97l45.969,45.97l45.97,45.968L321,426.721l45.97-45.97l45.967-45.967l45.971-45.97l45.969-45.97
		L458.907,196.875z M362.597,358.631l-37.387,37.388c-1.271,1.274-2.995,1.986-4.792,1.986c-1.798,0-3.522-0.712-4.793-1.986
		l-36.805-36.806c-2.648-2.647-2.648-6.939,0-9.588c2.646-2.646,6.939-2.646,9.587,0.001l32.011,32.015l32.595-32.595
		c2.646-2.648,6.94-2.648,9.584,0C365.245,351.693,365.245,355.985,362.597,358.631z M436.788,284.442
		c-1.322,1.323-3.059,1.985-4.793,1.985c-1.736,0-3.47-0.662-4.794-1.985c-2.647-2.647-2.647-6.939,0-9.587l32.013-32.013
		l-32.013-32.01c-2.647-2.647-2.647-6.94,0-9.588c2.646-2.646,6.94-2.646,9.587,0l36.804,36.806c2.649,2.648,2.649,6.939,0,9.586
		L436.788,284.442z"/>
	<path fill="#828282" d="M321.29,66.468c-1.732,0-3.467-0.663-4.792-1.986l-37.384-37.387c-2.649-2.647-2.649-6.939,0-9.587
		c2.646-2.646,6.938-2.646,9.586,0l32.592,32.593l32.013-32.011c2.646-2.646,6.939-2.646,9.588,0
		c2.646,2.648,2.646,6.941-0.002,9.587l-36.806,36.804C324.761,65.805,323.025,66.468,321.29,66.468z"/>
</g>
</svg>
