<?xml version="1.0" encoding="utf-8"?>
<!-- Generator: Adobe Illustrator 16.0.0, SVG Export Plug-In . SVG Version: 6.00 Build 0)  -->
<!DOCTYPE svg PUBLIC "-//W3C//DTD SVG 1.1//EN" "http://www.w3.org/Graphics/SVG/1.1/DTD/svg11.dtd">
<svg version="1.1" id="Layer_1" xmlns="http://www.w3.org/2000/svg" xmlns:xlink="http://www.w3.org/1999/xlink" x="0px" y="0px"
	 width="640px" height="480px" viewBox="0 0 640 480" enable-background="new 0 0 640 480" xml:space="preserve">
<g>
	<path fill="#828282" d="M320.998,465.5c-124.067,0-225-100.938-225-225.004c0-124.059,100.933-224.996,225-224.996
		s225.004,100.937,225.004,224.996C546.002,364.563,445.065,465.5,320.998,465.5z M320.998,37.811
		c-111.758,0-202.685,90.927-202.685,202.685c0,111.767,90.927,202.694,202.685,202.694c111.759,0,202.685-90.927,202.685-202.694
		C523.683,128.737,432.757,37.811,320.998,37.811z"/>
	<path fill="#828282" d="M320.998,26.655c-118.104,0-213.845,95.742-213.845,213.84c0,118.107,95.741,213.849,213.845,213.849
		c118.099,0,213.849-95.742,213.849-213.849C534.847,122.397,439.097,26.655,320.998,26.655z M169.93,182.822
		c-6.158,0-11.155-4.992-11.155-11.156c0-6.163,4.998-11.155,11.155-11.155c42.967,0,77.922-34.953,77.922-77.919
		c0-6.164,4.996-11.156,11.155-11.156c6.163,0,11.16,4.992,11.16,11.156C270.167,137.866,225.201,182.822,169.93,182.822z"/>
</g>
</svg>
